<?xml version="1.0" encoding="UTF-8"?>
<svg version="1.1" xmlns="http://www.w3.org/2000/svg" width="500" height="500">
<path d="M0 0 C165 0 330 0 500 0 C500 165 500 330 500 500 C335 500 170 500 0 500 C0 335 0 170 0 0 Z " fill="#FEFEFE" transform="translate(0,0)"/>
<path d="M0 0 C32.34 0 64.68 0 98 0 C98 5 98 5 96.51605225 6.79121399 C92.95759121 8.50080405 89.60667223 8.39391161 85.74316406 8.34057617 C84.47863718 8.34111858 84.47863718 8.34111858 83.1885643 8.34167194 C80.4640083 8.33943557 77.74007062 8.31660296 75.015625 8.29296875 C73.3318715 8.28855704 71.6481139 8.28549703 69.96435547 8.28381348 C63.72617417 8.26809482 57.48808099 8.22621109 51.25 8.1875 C30.33625 8.0946875 30.33625 8.0946875 9 8 C9 50.57 9 93.14 9 137 C53.33964642 134.00354431 53.33964642 134.00354431 97.64257812 130.69238281 C114.40547178 129.41827437 131.19293206 128.49833677 147.97595215 127.53448486 C155.41476546 127.10681447 162.85327269 126.67391094 170.29166412 126.23897171 C172.84333493 126.09050722 175.39513397 125.94443631 177.94696045 125.79867554 C179.51770489 125.70749862 181.08844488 125.616245 182.65917969 125.52490234 C183.68614456 125.46723442 183.68614456 125.46723442 184.7338562 125.40840149 C190.51003183 125.06897349 196.22709593 124.52480946 202 124 C202.33 110.14 202.66 96.28 203 82 C208.08883763 83.27220941 208.08883763 83.27220941 210 86 C210.36076355 88.71452332 210.36076355 88.71452332 210.34057617 92.03198242 C210.34034958 93.27304245 210.34012299 94.51410248 210.33988953 95.79277039 C210.32456968 97.14700684 210.3089217 98.50123961 210.29296875 99.85546875 C210.28737251 101.2412317 210.28310254 102.62700059 210.28010559 104.01277161 C210.26865883 107.65762764 210.23919358 111.30212423 210.20599365 114.94683838 C210.17528885 118.66698342 210.16159941 122.38718661 210.14648438 126.10742188 C210.11432331 133.40511167 210.06312951 140.70250544 210 148 C209.29113647 148.04789169 208.58227295 148.09578339 207.85192871 148.14512634 C201.14370199 148.59874872 194.43562828 149.05456503 187.72771454 149.51279354 C184.2798191 149.74824857 180.8318719 149.98288032 177.38378906 150.21557617 C173.41193696 150.48365625 169.44034054 150.75541511 165.46875 151.02734375 C164.24136108 151.10967758 163.01397217 151.19201141 161.74938965 151.27684021 C155.79860205 151.68706575 149.91327995 152.22515642 144 153 C139.3278328 153.11870344 134.6749729 153.04495166 130 153 C130 158.28 130 163.56 130 169 C134.29 169 138.58 169 143 169 C143 169.99 143 170.98 143 172 C135.76398521 172.57903479 128.52718861 173.1474501 121.28979492 173.70898438 C118.83518229 173.90063292 116.38074822 174.09458458 113.92651367 174.29101562 C100.26328227 175.38295991 86.71151753 176.3506097 73 176 C73.33 175.01 73.66 174.02 74 173 C77.96 172.67 81.92 172.34 86 172 C86 167.05 86 162.1 86 157 C84.92331055 157.08564209 83.84662109 157.17128418 82.73730469 157.25952148 C45.08877056 160.24577527 45.08877056 160.24577527 32.92480469 160.70874023 C29.61548961 160.83891296 26.4020661 161.08060678 23.1171875 161.5234375 C15.44302884 162.23813014 7.70736639 162 0 162 C0 108.54 0 55.08 0 0 Z " fill="#050505" transform="translate(116,198)"/>
<path d="M0 0 C3.88718581 2.09310005 6.81059878 4.1516482 9 8 C9.24514485 10.76589744 9.32647681 13.29649147 9.2578125 16.0546875 C9.24788773 17.22343918 9.24788773 17.22343918 9.23776245 18.415802 C9.21440093 20.90260678 9.170734 23.38851458 9.125 25.875 C9.08980959 28.35423686 9.05897848 30.83341729 9.03366089 33.31277466 C9.01683741 34.85328516 8.99382541 36.39374463 8.96365356 37.93405151 C8.90620303 42.0985332 9.29938189 45.90714233 10 50 C10.12648823 52.83857032 10.21025852 55.65299154 10.23828125 58.4921875 C10.2480751 59.30668869 10.25786896 60.12118988 10.26795959 60.96037292 C10.52211305 87.60947758 7.23490441 111.308115 0 137 C0.99 137 1.98 137 3 137 C3.22429687 136.19820312 3.44859375 135.39640625 3.6796875 134.5703125 C5.36145706 130.02256879 7.68113821 126.05134599 10.125 121.875 C10.63764404 120.98280762 11.15028809 120.09061523 11.6784668 119.17138672 C14.49988059 114.2667173 17.3595196 109.38670156 20.26147461 104.52938843 C21.75610097 102.02060344 23.23569286 99.50312033 24.71356201 96.98443604 C25.44240798 95.7512068 26.17823981 94.52207797 26.92120361 93.29730225 C27.97120256 91.56529712 28.99584696 89.81799955 30.01953125 88.0703125 C30.61870361 87.06758301 31.21787598 86.06485352 31.83520508 85.03173828 C33.28637451 81.25462195 32.89989048 78.90060125 32 75 C31.67 74.34 31.34 73.68 31 73 C30.39889337 68.41180634 29.95292998 63.90526982 32.234375 59.75390625 C35.25612391 56.15622995 37.45182746 54.26345513 42.3046875 53.76171875 C49.23677582 53.56155207 49.23677582 53.56155207 52.9375 55.6875 C56.78796092 60.00468346 58.61452519 63.0060656 58.34375 69.01953125 C57.35670808 74.7062387 52.93524707 78.16816328 48.68359375 81.60546875 C45.11278265 84.56319395 43.02175234 87.47509475 40.77734375 91.56640625 C40.16060791 92.68426514 39.54387207 93.80212402 38.90844727 94.95385742 C38.25137936 96.15669159 37.59439853 97.35957333 36.9375 98.5625 C36.26605504 99.78324042 35.59409601 101.00369822 34.92163086 102.22387695 C33.5779097 104.66327851 32.2366619 107.10401258 30.89746094 109.54589844 C28.3027618 114.26923907 25.68381173 118.97889764 23.0625 123.6875 C21.70798003 126.12480387 20.35398576 128.56239928 19 131 C19.93384521 130.53053955 20.86769043 130.0610791 21.82983398 129.57739258 C32.53700445 124.20404125 43.2902582 118.92897451 54.0625 113.6875 C54.91218353 113.2736908 55.76186707 112.85988159 56.63729858 112.43353271 C67.71202853 107.04027482 78.79562164 101.66727273 89.92407227 96.38549805 C91.50488952 95.63440812 93.08379868 94.87928366 94.66040039 94.11938477 C96.33160734 93.31979342 98.01156958 92.53839755 99.69702148 91.76928711 C106.12559129 88.79352682 106.12559129 88.79352682 110.4375 83.3125 C112.2087592 80.16653217 112.89167879 79.07221414 116 77 C121.60876529 76.54026514 125.17285329 76.81847149 130 80 C133.01896109 83.34533526 134.86121552 85.61215524 135.3125 90.125 C134.85403783 95.80993092 133.05450167 100.12159847 128.8125 104 C124.81620823 105.42090374 121.19553655 105.59081531 117 105 C116.01 104.484375 115.02 103.96875 114 103.4375 C109.78613086 101.41835437 106.42069688 101.98901125 102 103 C97.16006725 104.71446707 92.49265938 106.77346713 87.8125 108.875 C86.47440963 109.46691852 85.13619191 110.05854924 83.79785156 110.64990234 C53.88744472 123.74064969 53.88744472 123.74064969 27 142 C27.93457031 141.74605469 28.86914062 141.49210938 29.83203125 141.23046875 C47.14956128 136.63776619 63.85329577 134.50813976 81.78051758 134.66381836 C84.69575495 134.68756725 87.61007966 134.68432734 90.52539062 134.67773438 C100.31942368 134.69336698 109.84353689 135.0896014 119.53369141 136.54907227 C127.24691758 137.55247618 134.73775208 138.00466807 142 135 C146.36828468 134.39594317 150.93907837 133.97768512 154.9765625 135.98046875 C157.74309961 138.19506127 159.99759303 140.59181629 161 144 C161.4850824 149.23888993 160.85631117 152.56779301 158 157 C153.67674378 160.90147512 151.006063 162.35340087 145.09765625 162.2890625 C140.62791695 161.67312077 136.80482781 158.42812288 134 155 C134 154.34 134 153.68 134 153 C119.77302725 145.42968422 101.87878219 145.62798772 86.125 145.75 C85.38098938 145.75376648 84.63697876 145.75753296 83.87042236 145.76141357 C50.31225735 145.96011028 20.85331076 155.13040935 -9.9140625 168.0625 C-28.91484581 176 -28.91484581 176 -32 176 C-30.52036382 171.96462861 -28.57007832 168.44053008 -26.375 164.75 C-19.49030143 152.84363256 -14.03876527 140.72467939 -9.625 127.6875 C-9.29113281 126.70990723 -8.95726562 125.73231445 -8.61328125 124.72509766 C-6.66377073 118.76725712 -5.33266734 112.91590877 -4.41381836 106.71459961 C-4.0114277 104.07496439 -3.49470155 101.48582217 -2.9375 98.875 C-0.91453377 88.83899851 -0.76014406 78.7753274 -0.75 68.5625 C-0.74899292 67.85878265 -0.74798584 67.15506531 -0.74694824 66.43002319 C-0.75525212 57.83465687 -0.94143513 49.32594017 -2.25 40.8125 C-2.35924805 40.07265869 -2.46849609 39.33281738 -2.58105469 38.57055664 C-3.77790019 31.97298506 -7.19967794 28.47681673 -12.1875 24.3125 C-16.82531024 20.43188327 -16.82531024 20.43188327 -17.23828125 17.046875 C-17.41794069 11.48688817 -16.82592714 8.3293386 -13 4 C-8.65214062 0.3284743 -5.67458104 -0.81065443 0 0 Z " fill="#06FFFC" transform="translate(224,124)"/>
<path d="M0 0 C2.69990662 1.79993774 4.5418865 3.083773 6 6 C6.40391526 9.63523738 6.23463713 11.56005537 4.5 14.8125 C1.58285166 17.36500479 -0.23064927 17.94149193 -4.03125 18.2109375 C-7.22582498 17.86866161 -8.85616798 16.27376123 -11 14 C-12.58939347 10.82121306 -12.41576711 8.5043228 -12 5 C-8.32600983 0.88863005 -5.54784976 -1.06235421 0 0 Z " fill="#0CFEFB" transform="translate(306,275)"/>
<path d="M0 0 C2.4375 1.5625 2.4375 1.5625 4 4 C4.56288002 7.94016013 4.60396028 10.05782196 2.4375 13.4375 C-0.94217804 15.60396028 -3.05983987 15.56288002 -7 15 C-9.4375 13.4375 -9.4375 13.4375 -11 11 C-11.56288002 7.05983987 -11.60396028 4.94217804 -9.4375 1.5625 C-6.05782196 -0.60396028 -3.94016013 -0.56288002 0 0 Z " fill="#FAFFFE" transform="translate(224,131)"/>
<path d="M0 0 C2.9375 2.0625 2.9375 2.0625 5 5 C5.06625411 8.8427383 4.81899419 10.99200716 2.375 14 C-1.11581787 15.46981805 -3.39148956 14.98413921 -7 14 C-9.5881216 11.74582958 -9.94242643 10.39479021 -10.4375 7 C-10 4 -10 4 -8.375 1.625 C-5.24988831 -0.51323431 -3.71837535 -0.6829669 0 0 Z " fill="#F5FFFE" transform="translate(374,265)"/>
<path d="M0 0 C3.375 0.875 3.375 0.875 5.375 2.875 C5.92087156 8.87958716 5.92087156 8.87958716 4.3125 11.8125 C1.25523824 13.4890629 -1.2156288 13.24028977 -4.625 12.875 C-6.5625 11.75 -6.5625 11.75 -7.625 9.875 C-8.16352618 6.25918138 -8.04736225 4.53388511 -6.0625 1.4375 C-3.625 -0.125 -3.625 -0.125 0 0 Z " fill="#F9FFFE" transform="translate(346.625,209.125)"/>
<path d="M0 0 C3.375 0.875 3.375 0.875 5.375 2.875 C5.92521834 8.92740175 5.92521834 8.92740175 4.25 11.8125 C1.43987736 13.40490283 -0.45264724 13.32819325 -3.625 12.875 C-6.4162125 10.89177007 -7.45097224 9.74513879 -8.125 6.375 C-7.12928094 1.39640472 -5.01830468 -0.17304499 0 0 Z " fill="#F6FFFE" transform="translate(268.625,185.125)"/>
</svg>
